<svg width="240" height="80" viewBox="0 0 240 80" fill="none" xmlns="http://www.w3.org/2000/svg">
<path d="M5.94922 1.77734H6.82812V2.07031L6.53516 2.65625L7.70703 3.24219C7.90234 3.24219 8.48828 2.85156 9.46484 2.07031C9.80664 2.85156 10.4902 3.24219 11.5156 3.24219C11.6133 3.24219 12.1016 2.75391 12.9805 1.77734H17.9609V2.07031L17.668 2.65625C18.3027 3.04687 18.8887 3.24219 19.4258 3.24219H19.7188C20.1094 3.24219 20.3047 2.75391 20.3047 1.77734H24.4062C25.627 1.82617 26.9941 2.50977 28.5078 3.82812C28.5078 3.29102 29.4844 2.90039 31.4375 2.65625C31.4375 2.07031 31.6328 1.77734 32.0234 1.77734H33.1953C33.7812 1.77734 34.5625 2.07031 35.5391 2.65625C35.9297 2.46094 36.2227 2.36328 36.418 2.36328C37.1992 3.19336 37.5898 3.97461 37.5898 4.70703V5C37.5898 6.07422 36.125 7.63672 33.1953 9.6875L32.9023 11.4453L33.1953 13.4961H32.6094L31.7305 12.9102C31.3398 12.959 31.1445 13.1543 31.1445 13.4961C31.1445 14.8633 31.6328 15.7422 32.6094 16.1328L34.0742 15.8398C34.0742 16.4746 34.4648 18.0371 35.2461 20.5273C33.8789 20.9668 33.1953 21.3574 33.1953 21.6992C34.9531 25.3125 35.832 27.3633 35.832 27.8516C35.832 28.3398 36.2227 28.9258 37.0039 29.6094L36.418 30.4883V30.7812C36.8086 31.2695 37.0039 31.6602 37.0039 31.9531L36.418 33.125L37.2969 33.7109H37.5898L38.4688 33.125H38.7617C38.7617 33.6133 38.957 34.5898 39.3477 36.0547C39.0059 36.25 38.5176 36.3477 37.8828 36.3477V36.9336C39.4941 36.9336 40.4707 38.3008 40.8125 41.0352C40.8125 41.3281 41.0078 42.207 41.3984 43.6719H40.8125C40.8125 42.8906 40.3242 42.5 39.3477 42.5V42.793C39.3477 45.4785 40.4219 47.2363 42.5703 48.0664C43.3516 50.4102 43.7422 51.875 43.7422 52.4609C42.1797 59.2969 41.0078 63.3008 40.2266 64.4727C40.2266 64.668 40.3242 64.9609 40.5195 65.3516C39.9336 68.4277 39.25 70.2832 38.4688 70.918V73.5547L37.8828 74.4336L37.2969 74.1406H36.7109V74.7266L36.418 77.6562C36.7109 77.6562 37.0039 77.9492 37.2969 78.5352C37.0527 79.5117 36.7598 80 36.418 80H29.6797C29.0938 79.2188 28.6055 78.8281 28.2148 78.8281L26.75 80H24.9922C24.4062 80 22.2578 72.5781 18.5469 57.7344C18.3516 57.7344 18.0586 56.9531 17.668 55.3906C18.0586 55.1953 18.3516 55.0977 18.5469 55.0977V54.8047C18.5469 54.4141 18.2539 54.2188 17.668 54.2188V53.9258L18.2539 53.0469V51.875C16.8867 51.1426 16.2031 50.5566 16.2031 50.1172C16.2031 49.4336 15.9102 48.3594 15.3242 46.8945C15.666 46.6992 16.0566 46.6016 16.4961 46.6016V46.0156L15.9102 45.1367L16.4961 43.9648C16.4961 43.7695 16.3984 43.4766 16.2031 43.0859L16.4961 41.6211C16.4961 40.8398 15.8125 40.3516 14.4453 40.1562C13.2734 38.7891 12.6875 37.8125 12.6875 37.2266C12.6875 36.7871 12.5898 36.3965 12.3945 36.0547L12.9805 35.7617C13.5176 36.7383 13.9082 37.2266 14.1523 37.2266C14.543 37.2266 14.7383 37.0312 14.7383 36.6406C14.0059 35.2734 13.4199 34.5898 12.9805 34.5898H12.1016C9.75781 26.5332 8.58594 22.2363 8.58594 21.6992C8.97656 21.6992 9.17188 21.5039 9.17188 21.1133V20.8203C8.43945 20.8203 7.07227 17.1094 5.07031 9.6875L1.26172 7.05078C0.871094 6.41602 0.675781 5.83008 0.675781 5.29297V5C0.675781 2.85156 2.43359 1.77734 5.94922 1.77734ZM49.6016 1.77734H51.9453V2.94922H52.5312V1.77734H60.7344V2.07031L60.1484 2.94922C61.3691 2.94922 62.248 5 62.7852 9.10156C62.9805 9.10156 63.0781 9.19922 63.0781 9.39453C62.1992 9.78516 61.7109 10.1758 61.6133 10.5664V12.3242C62.3945 16.2793 63.4688 19.8926 64.8359 23.1641L65.4219 22.8711H66.0078C66.6914 22.8711 67.5703 25.8008 68.6445 31.6602L68.0586 31.3672H66.8867V31.6602C66.8867 33.418 67.375 34.6875 68.3516 35.4688C68.7422 34.834 68.9375 34.3457 68.9375 34.0039H69.5234C72.2578 44.6973 74.0156 51.3379 74.7969 53.9258C73.918 58.0273 73.0391 60.0781 72.1602 60.0781L72.4531 62.7148C72.0137 65.6445 71.5254 67.1094 70.9883 67.1094L68.9375 69.4531V70.0391L69.2305 72.0898C68.9375 72.0898 68.5469 72.4805 68.0586 73.2617C68.0586 73.6523 68.3516 73.8477 68.9375 73.8477V74.1406C67.375 75.0684 66.5938 76.2402 66.5938 77.6562C67.1309 77.6562 67.7168 78.3398 68.3516 79.707L67.7656 80H56.3398C56.0469 80 55.7539 79.707 55.4609 79.1211V78.8281C55.4609 78.3398 55.8516 78.0469 56.6328 77.9492V77.3633C55.9004 77.3633 55.4121 76.6797 55.168 75.3125C54.4355 75.3125 53.5566 72.6758 52.5312 67.4023C51.3594 64.2773 50.7734 61.543 50.7734 59.1992H51.6523V58.3203C49.6992 56.7578 48.7227 55 48.7227 53.0469C48.5273 53.0469 48.4297 52.9492 48.4297 52.7539C48.4297 52.4121 49.0156 52.1191 50.1875 51.875C49.6016 49.3359 48.625 48.0664 47.2578 48.0664L46.9648 46.0156V45.4297C47.5508 44.0625 47.9414 43.3789 48.1367 43.3789C47.9414 42.5977 47.4531 42.207 46.6719 42.207H45.793C43.8398 35.6641 42.8633 31.6602 42.8633 30.1953C43.8398 29.4141 44.3281 28.5352 44.3281 27.5586C43.5469 27.4121 43.1562 27.2168 43.1562 26.9727C44.7188 20.4785 45.5 16.9629 45.5 16.4258H46.0859V17.3047H46.3789C47.7461 16.7676 48.4297 15.6934 48.4297 14.082V13.2031C47.4531 12.3242 46.9648 11.7383 46.9648 11.4453C46.9648 9.88281 47.5508 9.10156 48.7227 9.10156H49.0156L48.1367 6.17188C48.7227 3.24219 49.2109 1.77734 49.6016 1.77734ZM75.3828 1.77734C75.9199 3.14453 76.3105 3.82812 76.5547 3.82812C78.3125 3.82812 79.1914 3.14453 79.1914 1.77734H90.3242C91.3008 2.36328 91.7891 4.12109 91.7891 7.05078L90.3242 7.34375C89.6895 6.95312 89.1035 6.75781 88.5664 6.75781C87.1992 8.125 86.5156 9.19922 86.5156 9.98047H87.3945V10.2734C85.3438 13.7891 84.0742 15.5469 83.5859 15.5469C83.1953 15.7422 82.9023 15.8398 82.707 15.8398C82.707 16.1816 83.1953 16.4746 84.1719 16.7188C84.123 17.6953 83.5371 19.0625 82.4141 20.8203C82.6094 21.1621 82.707 21.5527 82.707 21.9922H81.5352V22.2852L82.1211 23.1641C81.8281 23.1641 81.5352 23.457 81.2422 24.043V24.3359C81.6328 24.8242 81.8281 25.2148 81.8281 25.5078C81.8281 25.8496 81.2422 28.1934 80.0703 32.5391H79.7773C79.582 32.5391 79.4844 32.4414 79.4844 32.2461C79.0938 32.4414 78.8008 32.5391 78.6055 32.5391V33.418C79.3867 33.418 79.7773 33.6133 79.7773 34.0039C79.7773 34.1504 79.0938 34.6387 77.7266 35.4688C77.7754 35.8594 77.9707 36.0547 78.3125 36.0547L78.8984 35.7617C78.8984 35.957 78.9961 36.0547 79.1914 36.0547C78.8496 38.0078 78.459 38.9844 78.0195 38.9844C78.0195 39.1797 78.1172 39.2773 78.3125 39.2773C78.1172 40.6445 77.8242 41.3281 77.4336 41.3281H77.1406C77.1406 40.5957 76.75 40.0098 75.9688 39.5703C74.7969 37.3242 74.2109 35.2734 74.2109 33.418H75.6758L76.2617 33.125C76.2617 32.9297 76.1641 32.6367 75.9688 32.2461C76.1641 30.9277 76.2617 29.8535 76.2617 29.0234V27.8516C76.8477 27.8516 77.1406 27.3633 77.1406 26.3867V26.0938C77.1406 25.7031 76.9453 25.5078 76.5547 25.5078C76.5547 25.8984 76.3594 26.0938 75.9688 26.0938H75.6758C75.8223 24.7266 76.3105 24.043 77.1406 24.043V23.1641C76.75 23.1641 76.5547 23.0664 76.5547 22.8711C77.9219 17.1582 78.6055 13.8379 78.6055 12.9102C78.6055 10.9082 76.8477 8.75977 73.332 6.46484C72.5508 6.46484 72.1602 5.87891 72.1602 4.70703V4.41406C72.1602 2.65625 73.2344 1.77734 75.3828 1.77734ZM60.1484 6.46484V6.75781C60.1484 7.05078 60.4414 7.34375 61.0273 7.63672C61.418 7.00195 61.6133 6.51367 61.6133 6.17188L61.0273 5.87891H60.7344C60.3438 5.92773 60.1484 6.12305 60.1484 6.46484ZM66.0078 27.2656L65.7148 27.8516V28.4375C65.7637 28.8281 65.959 29.0234 66.3008 29.0234C66.6914 29.0234 66.8867 28.8281 66.8867 28.4375V27.5586C66.6914 27.5586 66.3984 27.4609 66.0078 27.2656ZM51.9453 59.4922L51.0664 60.6641L51.9453 61.25C52.2383 61.25 52.5312 60.957 52.8242 60.3711C52.8242 60.0781 52.5312 59.7852 51.9453 59.4922ZM119.768 1.77734H120.939L122.111 2.65625C122.111 2.07031 122.307 1.77734 122.697 1.77734H124.748L125.92 2.65625C125.92 2.07031 126.115 1.77734 126.506 1.77734H127.092C127.385 1.77734 127.678 2.16797 127.971 2.94922C128.166 2.94922 128.752 2.55859 129.729 1.77734V2.07031L130.314 1.77734H133.244C133.635 1.77734 133.83 2.07031 133.83 2.65625H134.123L135.295 1.77734H141.74C142.033 1.77734 142.326 2.07031 142.619 2.65625V3.82812H142.033V4.41406C143.01 4.41406 144.67 10.2734 147.014 21.9922C147.209 21.9922 147.697 23.9453 148.479 27.8516C148.088 28.4863 147.893 29.0723 147.893 29.6094C149.211 30.8789 150.188 33.5156 150.822 37.5195V38.3984C150.822 38.8379 150.529 39.6191 149.943 40.7422L150.236 42.5V42.793L149.943 43.3789L150.822 43.9648H151.115L151.994 43.3789H152.287C153.068 46.8457 153.459 48.8965 153.459 49.5312L152.287 48.9453L151.994 49.5312L153.459 53.6328C154.729 53.6328 155.607 55.8789 156.096 60.3711C156.291 60.3711 156.389 60.5664 156.389 60.957C156.047 61.1523 155.656 61.25 155.217 61.25V61.8359C156.584 61.8359 157.268 62.9102 157.268 65.0586H156.975L157.561 66.2305C157.219 66.4258 156.828 66.5234 156.389 66.5234C156.389 67.9395 157.17 69.209 158.732 70.332C158.732 72.2363 160.197 73.7012 163.127 74.7266C163.908 75.6055 164.299 76.0938 164.299 76.1914V77.0703L164.006 78.5352H163.713C163.518 78.5352 163.029 77.9492 162.248 76.7773H161.662C161.662 77.6074 160.002 78.1934 156.682 78.5352C156.682 79.5117 156.389 80 155.803 80H155.217C155.021 80 154.924 79.9023 154.924 79.707L154.338 80H150.236V78.8281H149.65V80H143.791C143.254 80 142.961 79.5117 142.912 78.5352H141.447L142.033 79.707L141.447 80H139.396C138.469 78.6328 137.297 77.9492 135.881 77.9492C135.49 77.998 135.295 78.1934 135.295 78.5352L135.881 79.4141C135.881 79.8047 135.686 80 135.295 80H131.779C131.34 80 130.949 79.9023 130.607 79.707L130.021 80C128.264 79.3164 127.385 78.3398 127.385 77.0703V76.7773C127.385 75.6543 128.85 74.2871 131.779 72.6758L132.072 70.918C132.072 69.9414 131.486 67.1094 130.314 62.4219C130.705 62.2266 130.998 62.1289 131.193 62.1289V61.543C129.631 61.1523 128.85 60.8594 128.85 60.6641L128.264 60.957H126.799C126.408 60.957 126.213 60.7617 126.213 60.3711V59.7852L126.506 59.1992L125.92 58.9062H123.283L119.768 59.1992C119.768 59.0039 119.67 58.9062 119.475 58.9062C119.182 59.6875 118.889 60.0781 118.596 60.0781C117.424 59.6387 116.252 58.4668 115.08 56.5625C115.227 55 115.52 54.2188 115.959 54.2188H128.264V53.9258L126.506 45.4297L127.385 43.9648V42.207C126.799 40.3027 126.213 39.2285 125.627 38.9844C124.895 38.9844 124.113 36.3477 123.283 31.0742C123.039 31.0742 122.453 28.4375 121.525 23.1641C122.111 21.8945 122.404 21.0156 122.404 20.5273C121.037 19.7949 120.354 19.3066 120.354 19.0625C119.768 16.0352 119.475 14.375 119.475 14.082L119.768 12.6172C118.986 11.8848 118.596 10.5176 118.596 8.51562H119.182V7.92969H118.01C118.498 3.82812 119.084 1.77734 119.768 1.77734ZM143.498 12.9102V13.7891H144.084V12.9102H143.498ZM115.373 17.5977C115.764 18.2324 115.959 18.7207 115.959 19.0625C115.764 20.0879 115.666 20.6738 115.666 20.8203C116.057 21.5527 116.252 22.334 116.252 23.1641V23.75C116.252 24.1895 116.154 24.5801 115.959 24.9219C115.959 25.3613 116.643 26.0449 118.01 26.9727C118.01 27.4121 118.107 27.8027 118.303 28.1445C116.887 34.3945 115.715 37.5195 114.787 37.5195C115.178 38.1543 115.373 38.6426 115.373 38.9844C112.639 48.75 111.271 53.9258 111.271 54.5117H109.514C109.123 54.5117 108.732 55.3906 108.342 57.1484C108.391 58.2227 108.781 59.1016 109.514 59.7852V60.0781C109.514 60.6641 109.123 61.543 108.342 62.7148C108.537 63.1055 108.635 63.3984 108.635 63.5938C108.049 65.6445 107.756 66.9141 107.756 67.4023V68.2812H107.17C106.779 68.2812 106.584 67.9883 106.584 67.4023C106.193 67.4512 105.998 67.6465 105.998 67.9883V68.2812C105.998 70.6738 107.365 72.9199 110.1 75.0195L111.271 74.4336C111.662 74.6289 111.955 74.7266 112.15 74.7266L113.615 74.4336L113.908 75.0195V75.3125H112.443V77.9492H113.615C114.055 77.9492 114.348 77.4609 114.494 76.4844H115.08V77.9492C114.445 79.3164 112.98 80 110.686 80H109.514V78.8281C109.172 78.6328 108.781 78.5352 108.342 78.5352H108.049C107.902 79.5117 107.609 80 107.17 80H102.189C101.799 80 101.604 79.8047 101.604 79.4141C100.041 79.8047 98.1855 80 96.0371 80H95.7441C94.0352 80 92.7656 79.3164 91.9355 77.9492C91.9844 77.5586 92.1797 77.3633 92.5215 77.3633C92.1309 76.7285 91.9355 76.1426 91.9355 75.6055C92.3262 74.8242 92.9121 74.4336 93.6934 74.4336C94.5234 74.4336 95.5 74.6289 96.623 75.0195L97.209 74.1406C96.623 74.1406 96.3301 73.9453 96.3301 73.5547V73.2617C97.209 72.0898 98.1855 71.5039 99.2598 71.5039L98.9668 70.918C100.969 67.4023 102.141 65.6445 102.482 65.6445C103.264 65.1074 103.654 64.4238 103.654 63.5938V63.0078C103.068 63.0078 102.775 62.9102 102.775 62.7148C103.117 59.5898 103.898 58.0273 105.119 58.0273V57.7344L104.533 56.8555C104.582 56.4648 104.777 56.2695 105.119 56.2695C105.461 56.4648 105.852 56.5625 106.291 56.5625C106.291 56.2207 106.486 55.7324 106.877 55.0977C106.682 54.7559 106.584 54.2676 106.584 53.6328H105.998C105.998 54.4141 105.705 54.8047 105.119 54.8047C105.119 54.6094 105.021 54.5117 104.826 54.5117C106.975 46.5039 108.342 42.0117 108.928 41.0352C109.709 41.0352 110.1 40.7422 110.1 40.1562C110.49 39.4238 110.686 38.6426 110.686 37.8125H110.1V38.9844H109.221V38.6914C109.221 37.8613 109.904 36.9824 111.271 36.0547L111.564 34.5898C111.271 34.5898 110.979 34.2969 110.686 33.7109C113.371 22.9688 114.934 17.5977 115.373 17.5977ZM151.115 46.0156V47.7734H151.408C151.701 47.7734 151.994 47.4805 152.287 46.8945C152.092 46.5039 151.994 46.2109 151.994 46.0156H151.115ZM105.998 51.875V53.0469L106.584 53.3398V53.0469C106.389 52.7051 106.291 52.3145 106.291 51.875H105.998ZM101.311 67.9883C101.311 68.2812 101.115 69.0625 100.725 70.332C101.457 70.332 102.043 69.7461 102.482 68.5742L101.604 67.9883H101.311ZM107.17 69.7461H108.049C108.049 70.1367 107.854 70.332 107.463 70.332L107.17 69.7461ZM158.732 74.1406V74.4336C158.732 74.8242 159.416 75.2148 160.783 75.6055L161.076 75.0195C161.076 74.6289 160.295 74.3359 158.732 74.1406ZM162.248 77.9492C162.541 77.9492 162.834 78.3398 163.127 79.1211L162.248 79.707H161.955C161.564 79.707 161.369 79.5117 161.369 79.1211C161.662 78.3398 161.955 77.9492 162.248 77.9492ZM179.094 0.3125H194.914C195.305 0.361328 195.5 0.556641 195.5 0.898438V3.53516C195.5 5.68359 195.402 6.75781 195.207 6.75781C195.402 8.75977 195.5 10.3223 195.5 11.4453V36.0547C194.523 36.0547 194.035 36.25 194.035 36.6406C194.035 37.2266 194.523 37.5195 195.5 37.5195V42.793L194.621 43.9648V44.2578C195.207 44.2578 195.5 44.4531 195.5 44.8438V46.6016C195.5 46.8945 195.109 47.2852 194.328 47.7734L193.742 47.4805C193.742 47.8711 193.547 48.0664 193.156 48.0664C193.156 48.2617 193.254 48.5547 193.449 48.9453C193.254 50.8984 193.156 52.3633 193.156 53.3398C193.937 55.4883 194.719 56.5625 195.5 56.5625V65.6445C194.328 66.6211 193.742 67.3047 193.742 67.6953C193.742 68.1348 194.328 68.5254 195.5 68.8672C195.5 70.8203 197.062 71.9922 200.187 72.3828V74.1406C200.187 74.5801 200.676 74.873 201.652 75.0195C202.043 74.8242 202.336 74.7266 202.531 74.7266V75.3125C202.531 77.4609 201.164 78.5352 198.43 78.5352H197.258L196.379 77.9492H195.793L194.914 78.5352H189.055V78.2422L189.348 76.7773L188.176 76.1914C188.176 76.582 187.395 76.7773 185.832 76.7773L186.418 77.6562C186.418 77.9492 186.125 78.2422 185.539 78.5352H184.953V78.2422C185.148 77.8516 185.246 77.5586 185.246 77.3633C184.074 76.4844 183.488 75.9961 183.488 75.8984L182.316 76.4844L180.852 76.1914C180.07 76.4844 179.68 76.7773 179.68 77.0703C180.07 77.7051 180.266 78.1934 180.266 78.5352H170.305L168.547 78.2422C168.205 78.4375 167.814 78.5352 167.375 78.5352C165.227 78.1445 164.152 77.168 164.152 75.6055V75.3125C165.373 73.5059 167.131 72.1387 169.426 71.2109C169.816 69.9414 170.012 69.0625 170.012 68.5742V60.6641C171.135 59.0527 171.721 57.6855 171.77 56.5625C171.33 56.1719 170.744 55.9766 170.012 55.9766V48.9453C170.012 48.75 170.109 48.6523 170.305 48.6523L170.012 48.0664V44.2578L171.477 44.5508L171.77 43.9648C171.77 43.5742 171.477 43.3789 170.891 43.3789C170.5 43.5742 170.207 43.6719 170.012 43.6719V30.4883C171.574 29.4629 172.355 28.3887 172.355 27.2656V26.6797C171.818 25.9473 171.428 24.9707 171.184 23.75C170.402 23.75 170.012 23.5547 170.012 23.1641V14.082L171.77 12.0312C171.77 11.1035 171.184 10.4199 170.012 9.98047C170.012 9.3457 169.523 8.17383 168.547 6.46484L168.84 5C167.619 4.60938 166.936 4.12109 166.789 3.53516C166.789 3.24219 167.082 2.94922 167.668 2.65625H168.547C169.67 2.65625 170.354 2.75391 170.598 2.94922C174.553 2.94922 176.994 2.16797 177.922 0.605469C178.264 0.410156 178.654 0.3125 179.094 0.3125ZM200.48 0.3125H201.066C201.066 1.09375 203.312 1.875 207.805 2.65625C208.146 2.46094 208.537 2.36328 208.977 2.36328C209.416 2.36328 209.807 2.46094 210.148 2.65625C212.053 2.46094 213.322 1.875 213.957 0.898438C214.738 1.19141 215.129 1.48438 215.129 1.77734C214.836 1.77734 214.543 2.07031 214.25 2.65625V2.94922H215.422V2.36328H216.008L217.18 3.53516H217.766L218.937 2.36328C222.844 3.87695 224.797 5.3418 224.797 6.75781C224.797 7.24609 225.383 8.125 226.555 9.39453C228.459 13.4961 229.533 15.5469 229.777 15.5469C230.949 15.5469 231.535 16.8164 231.535 19.3555V22.2852C231.535 22.7734 231.145 23.5547 230.363 24.6289C230.363 25.8496 229.582 27.3145 228.02 29.0234V30.4883H228.605V31.0742C228.605 31.3672 228.215 31.7578 227.434 32.2461H227.141V31.6602H226.555V33.418C225.383 34.9805 224.211 35.7617 223.039 35.7617C222.355 36.9336 221.477 37.5195 220.402 37.5195V36.0547C220.402 35.6641 220.207 35.4688 219.816 35.4688C219.23 35.4688 218.254 36.6406 216.887 38.9844C214.885 39.7656 213.615 40.1562 213.078 40.1562V40.4492C215.031 40.4492 216.008 41.1328 216.008 42.5H216.594L217.473 41.9141C218.693 43.2812 219.67 43.9648 220.402 43.9648C220.402 43.7695 220.5 43.6719 220.695 43.6719L220.402 42.207V41.9141H220.695C223.967 43.1836 225.92 44.2578 226.555 45.1367C229.68 47.3828 231.242 50.3125 231.242 53.9258V61.543H230.656C230.656 61.1523 230.266 60.957 229.484 60.957C229.289 61.2988 229.191 61.6895 229.191 62.1289V63.5938L229.777 64.4727L229.191 65.3516C229.24 65.7422 229.436 65.9375 229.777 65.9375L231.242 65.6445C231.242 67.0117 231.535 67.6953 232.121 67.6953H232.707C234.514 65.5469 235.979 64.4727 237.102 64.4727C238.029 64.4727 238.811 65.2539 239.445 66.8164V67.1094L238.859 66.8164H238.273V67.1094C238.273 67.6953 238.762 67.9883 239.738 67.9883C238.176 72.2852 236.711 74.4336 235.344 74.4336L233.586 74.1406C232.951 74.1406 232.365 75.0195 231.828 76.7773V77.6562C231.291 77.6562 230.412 78.1445 229.191 79.1211C226.408 79.707 224.748 80 224.211 80L224.504 78.5352V77.9492L221.574 77.6562C219.035 77.6562 217.766 78.2422 217.766 79.4141C214.25 78.7305 212.492 77.7539 212.492 76.4844L212.785 75.0195H210.148C207.609 72.3828 206.34 68.6719 206.34 63.8867V56.5625C206.34 56.1719 206.633 55.9766 207.219 55.9766V55.6836C206.633 55.6836 206.34 55.4883 206.34 55.0977V51.582C206.73 51.0938 206.926 50.7031 206.926 50.4102C206.145 49.2383 205.754 48.3594 205.754 47.7734C206.096 47.5781 206.486 47.4805 206.926 47.4805L206.633 46.0156H206.34C205.949 46.0156 205.754 46.3086 205.754 46.8945H205.168C204.777 46.8945 204.582 46.6992 204.582 46.3086L204.875 44.5508L203.996 43.9648C203.801 44.3066 203.703 44.6973 203.703 45.1367C201.164 44.5508 199.895 44.0625 199.895 43.6719V43.0859C199.895 42.1582 199.992 41.1816 200.187 40.1562C199.992 39.375 199.895 38.6914 199.895 38.1055C200.822 37.7148 201.896 37.5195 203.117 37.5195C203.166 37.9102 203.361 38.1055 203.703 38.1055H203.996C204.289 38.0566 205.168 36.0059 206.633 31.9531L207.219 31.6602L206.34 30.1953V14.375C206.34 10.3223 204.68 7.97852 201.359 7.34375V6.75781C201.359 6.36719 201.652 6.17188 202.238 6.17188L201.945 5.58594L200.48 5.87891C200.09 5.87891 199.895 5.68359 199.895 5.29297V0.898438C199.943 0.507813 200.139 0.3125 200.48 0.3125ZM207.805 0.605469L208.098 1.19141C208.098 1.58203 207.902 1.77734 207.512 1.77734H207.219C206.828 1.77734 206.633 1.58203 206.633 1.19141L207.805 0.605469ZM170.012 25.5078H170.598V26.6797H170.012V25.5078ZM193.742 62.7148L193.449 63.3008C193.645 63.6914 193.742 63.9844 193.742 64.1797H194.914V63.0078L193.742 62.7148ZM171.184 66.8164V67.9883H171.77L172.355 67.6953C172.16 67.3047 172.062 67.0117 172.062 66.8164H171.184Z" fill="#7D1815"/>
</svg>
